<?xml version="1.0" encoding="utf-8"?>
<!-- Generator: Adobe Illustrator 25.4.1, SVG Export Plug-In . SVG Version: 6.00 Build 0)  -->
<svg version="1.1" xmlns="http://www.w3.org/2000/svg" xmlns:xlink="http://www.w3.org/1999/xlink" x="0px" y="0px"
	 viewBox="0 0 3897 4333" style="enable-background:new 0 0 3897 4333;" xml:space="preserve">
<style type="text/css">
	.st0{fill:#FFFFFF;}
	.st1{fill:#262626;}
	.st2{fill:#F4B77F;}
	.st3{fill:#FFC68D;}
	.st4{fill:#E8A262;}
	.st5{fill:#5FD4E0;}
	.st6{fill:#EA1B1B;}
	.st7{opacity:0.2;}
	.st8{fill:#FF9408;}
	.st9{opacity:0.2;fill:#FFFFFF;}
	.st10{fill:#3D1414;}
	.st11{opacity:0.56;}
	.st12{fill:#5F121A;}
	.st13{fill:#EDE9E4;}
	.st14{opacity:0.15;}
	.st15{fill:#FBFBFB;}
	.st16{opacity:0.5;}
	.st17{opacity:0.47;}
	.st18{opacity:0.25;}
	.st19{opacity:0.1;}
	.st20{fill:#E9F0F2;}
	.st21{opacity:0.38;}
	.st22{fill:#D5DFE2;}
	.st23{fill:#D6E7EA;}
	.st24{fill:#353535;}
	.st25{fill:#232323;}
	.st26{fill:#2B2B2B;}
</style>
<g id="Íàïðàâëÿþùèå_äëÿ_ìîíòàæíîé_îáëàñòè">
</g>
<g id="Ñëîé_1">
	<rect class="st0" width="3865" height="4333"/>
	<g>
		<path class="st1" d="M1315.62,1595.3c-7.32-0.06-14.69-0.11-22.08-0.18c-52.83-0.58-105.94,1.51-155.47-17.45
			c31.35,50.86,68.14,118.74,137.09,118.23c12.36,0.25,19.57-5.13,24.05-13.41c8.97-16.56,7.06-44.72,13.72-62.68
			C1314.08,1612.15,1315.01,1603.95,1315.62,1595.3z"/>
	</g>
	<g>
		<path class="st2" d="M1221.3,1949.37c-36.48-96.6-48.78-207.26-19.5-306.98c2.67-8.3,6.14-16.76,10.44-24.76
			c12.9-23.99,33.35-43.85,62.65-43.04c27.91,0.77,45.31,27.78,39,54.14c-3.28,11.43-6.65,22.75-10.08,33.98
			c-3.42,11.24-6.91,22.39-10.4,33.58c-22.49,72.29-39.88,145.82-60.64,218.67C1229.13,1926,1225.34,1937.37,1221.3,1949.37z"/>
	</g>
	<g>
		<path class="st2" d="M2746.27,2039.79c39.13-95.56,54.49-205.83,27.97-306.33c-2.44-8.38-5.67-16.92-9.75-25.04
			c-12.24-24.34-32.13-44.75-61.44-44.75c-27.92,0-46.06,26.52-40.48,53.04c2.97,11.52,6.02,22.92,9.13,34.24
			c3.11,11.33,6.29,22.57,9.47,33.85c20.48,72.88,35.84,146.86,54.58,220.27C2739.08,2016.21,2742.56,2027.68,2746.27,2039.79z"/>
	</g>
	<g>
		<path class="st3" d="M2637.17,1860.86c14.7-0.55,28.41,2.51,41.14,9.2c11.51,3.74,21.67,9.8,30.49,18.17
			c-2.96-10.97-6.14-21.92-10.11-32.71c-3.93-10.16-8.43-20.16-13.78-29.93c-11.17-22.33-50.25-2.79-67,16.75
			c-7.32,8.3-13.94,16.96-19.66,26.06C2610.71,1863.83,2624.05,1861.45,2637.17,1860.86z"/>
	</g>
	<g>
		<path class="st4" d="M2565.97,3079.54c0.22,0.01,0.43,0.03,0.65,0.03c8.11-5.91,16.2-11.85,24.21-17.9
			c7.5-5.93,14.93-11.97,22.27-18.11c-20.34,12.02-40.85,23.81-60.87,35.81C2556.81,3079.37,2561.39,3079.41,2565.97,3079.54z"/>
	</g>
	<path class="st5" d="M1305.49,3107.29c3.63,6.44,7.58,12.67,11.76,18.74c13.61,15.76,28.89,29.96,45.04,43.12
		c52.41,38.71,109.82,71.18,156.82,116.79c15.73,15.26,28.81,32.51,41.98,50.03c7.64,10.16,14.34,21.04,19.8,32.52
		c9.58,20.16,18.84,41.35,23.75,63.29c5.23,23.36,8.12,47.61,8.65,71.57c2.14,97.01,5.71,193.97,10.37,290.9
		c3.74,77.79,8.08,155.54,12.64,233.28c46.45,10.61,93.15,19.9,140.11,26.78c103.61,12.55,207.92,12.14,311.5-0.46
		c17.92-2.6,35.79-5.52,53.61-8.71c5.57-56.94,9.47-114.06,11.08-171.18c2.41-85.38,1.49-170.9,0.9-256.3
		c-0.35-51.16-10.56-101.72-8.84-153.04c1.35-40.08,7.24-81.57,27.74-116.83c18.45-31.74,48.34-55.08,81.17-70.47
		c32.55-15.26,66.28-27.77,100.29-39.32c18.99-6.45,38.2-12.51,56.96-19.68c26.28-12.23,51.64-27.24,75.16-44.19
		c13.1-10.91,25.4-22.71,36.55-35.59c5.01-7.37,9.57-15.01,13.64-22.94c2.69-8.06,4.85-16.28,6.44-24.68
		c1.61-8.54,4.88-16.62,9.3-24.13c-185.31,135.8-388.08,184.52-473.39,199.94c-14.73-0.53-29.41-0.86-43.97-1.07
		c-34.17-1.61-68.4-2.2-102.19-2.34c-0.85,0-1.71,0.01-2.56,0.02c-0.85,0-1.71-0.01-2.56-0.02c-33.79,0.15-68.03,0.73-102.19,2.34
		c-17.26,0.25-34.69,0.67-52.17,1.39c-85.65-15.32-295.41-65.13-484.49-207.17l-13.11,14.65
		C1287.65,3083.38,1298.38,3094.7,1305.49,3107.29z"/>
	<g>
		<polygon class="st6" points="1995.2,575.64 2118.83,633.11 2144.97,303.57 2186.26,738.68 2057.14,696.92 2037.23,1003.99 		"/>
	</g>
	<g class="st7">
		<path class="st0" d="M2152.25,525.73c0.44-1.13,0.9-2.26,1.33-3.39c2.39-8.51,5.69-16.48,9.88-23.93l-18.49-194.84l-22.33,281.51
			C2133.01,565.55,2143.14,545.89,2152.25,525.73z"/>
		<path class="st0" d="M2027.34,824.7c7.03-33.7,15.38-67.23,27.95-99.32l1.85-28.47l8.81,2.85c10.96-25.38,22.84-50.17,35.53-74.72
			l-106.27-49.41l27.01,275.3C2023.81,842.15,2025.53,833.41,2027.34,824.7z"/>
	</g>
	<g>
		<polygon class="st6" points="910.44,910.17 1034.23,869.47 837.13,622.54 1150.24,899.05 1032.89,954.29 1219.65,1181.49 		"/>
	</g>
	<g>
		<path class="st6" d="M1053.24,1010.51c-2.7-13.51-5.2-27.05-7.54-40.63l-12.81-15.58l9.48-4.46
			c-4.22-26.39-7.81-52.89-10.85-79.46l-121.08,39.8l149.34,131.04C1057.47,1031,1055.29,1020.77,1053.24,1010.51z"/>
		<path class="st6" d="M1023.75,787.34L837.13,622.54l193.83,242.84C1028.06,839.41,1025.67,813.39,1023.75,787.34z"/>
	</g>
	<g class="st7">
		<path class="st0" d="M1053.24,1010.51c-2.7-13.51-5.2-27.05-7.54-40.63l-12.81-15.58l9.48-4.46
			c-4.22-26.39-7.81-52.89-10.85-79.46l-121.08,39.8l149.34,131.04C1057.47,1031,1055.29,1020.77,1053.24,1010.51z"/>
		<path class="st0" d="M1023.75,787.34L837.13,622.54l193.83,242.84C1028.06,839.41,1025.67,813.39,1023.75,787.34z"/>
	</g>
	<polygon class="st8" points="1605.45,782.71 1502.15,754.69 1626,994.17 1589.65,827.21 1693.96,848.73 1572.89,611.96 	"/>
	<path class="st9" d="M1542.97,833.62c0.35-0.34,0.68-0.69,1.04-1.02c19.36-19.36,48.13-31.28,75.51-31.28
		c22.09,0,42.28,7.07,59.9,18.95l-106.52-208.31l32.56,170.74l-103.3-28.02L1542.97,833.62z"/>
	<polygon class="st8" points="2539.16,877.07 2512.84,773.32 2365.04,998.82 2492.64,885.17 2525.11,986.6 2671.91,764.86 	"/>
	<path class="st9" d="M2539.3,876.95c11.86,11.82,23.08,24.19,33.79,37.18l98.82-149.28L2539.3,876.95z"/>
	<path class="st9" d="M2499.09,840.98c14.14,11.35,27.42,23.24,39.99,35.75l-26.24-103.41l-33.91,51.74
		C2486.34,829.19,2493.06,834.49,2499.09,840.98z"/>
	<polygon class="st8" points="917.43,1330.61 960.67,1261.85 759.41,1298.64 888.64,1309.28 849.9,1380.21 1048.56,1344.82 	"/>
	<polygon class="st8" points="3002.5,1361.9 2978.1,1439.36 3163.46,1352.79 3035.76,1375.23 3055.27,1296.81 2872.05,1381.36 	"/>
	<g>
		<polygon class="st6" points="2977.59,850.24 3020.33,973.34 3263.97,772.18 2992.69,1089.83 2935.51,973.41 2711.43,1163.91 		"/>
	</g>
	<g class="st7">
		<path class="st0" d="M2866.79,1031.83l68.72-58.42l15.26,31.08c45.01-12.25,91.18-21.19,137.5-26.58l175.7-205.73l-243.64,201.16
			l-42.74-123.1l-179.68,211.75C2820.28,1050.85,2843.34,1040.81,2866.79,1031.83z"/>
	</g>
	<g>
		<g>
			<path class="st1" d="M1645.69,1314.31c-50.28-62.61-10.78-142.69,26.59-201.41c12.81,52.31,32.03,117.44,92.88,128.12
				c-25.62,23.49-56.58,39.5-86.8,56.46C1668.28,1303.15,1657.4,1308.87,1645.69,1314.31z"/>
		</g>
	</g>
	<g>
		<g>
			<path class="st1" d="M2401.02,1421.72c68.93-14.88,144.31-28.84,194.56-81.88c1.4,37.69,11.17,76.77,2.01,114.34
				c-2.21,9.14-5.42,17.95-9.89,26.25c-4.49,8.31-10.25,16.11-17.54,23.22c-5.33,4.81-11.34,7.48-17.54,8.41
				c-6.21,0.93-12.64,0.14-18.94-1.96c-42.78-22.32-79.07-51.63-120.51-76.76C2409.04,1429.78,2404.98,1425.92,2401.02,1421.72z"/>
		</g>
	</g>
	<g>
		<g>
			<path class="st1" d="M1354.82,2091.54c-22.54-81.67-49.24-162.16-70.28-244.26c-22.38-87.36-39.25-173.92-5.73-260.77
				c29.58-76.64,80.04-144.31,138.84-201.07c9.84-8.32,20.01-16.22,30.48-23.64c73.25-51.97,160.98-80.67,253.03-67.67
				c67.15,10.83,134.29,47.65,160.28,114.8c19.49,51.98,23.83,136.46-36.82,149.45c-132.13,28.16-264.25,90.97-265.49,238.08
				c-3.81,18.41-8.02,36.41-12.71,54.1c-18.76,70.78-45.21,136.81-81.24,202.04c-2.74,7.87-5.9,15.63-8.29,23.61
				c-3.18,10.6-6.44,22.42-12.45,31.52c-5.16,7.81-15.9,59.05-32.53,39.63c-4.72-5.52-3.62-14.24-3.2-21.12
				c0.42-6.94,4.95-14.84,1.52-22.01c-3-6.28-14.51-11.34-21.06-12.76C1379.62,2089.42,1370.92,2089.15,1354.82,2091.54z"/>
		</g>
	</g>
	<g>
		<g>
			<g>
				<path class="st3" d="M1404.18,2103.68c-16.26-8.89-27.31-30.32-39.6-43.88c-3.59-3.96-7.41-7.98-12.37-9.97
					c-19.08-7.68-38.05,9.15-53.31,18.33c-19.24,11.55-38.5,23.05-57.79,34.51c-4.69,2.79-9.51,5.69-12.82,10.03
					c-15.21,19.96,1.47,53.35,9.47,72.96c8.5,20.84,18.07,41.22,27.88,61.48c13.73,28.33,27.48,47.14,25.55,79.82
					c-1.62,27.5,7.36,50.12,35.37,59.14c4.59,1.48,9.56,2.42,14.21,1.14c19.12-5.23,25.93-61.91,29.18-77.14
					c12.55-58.83,21.41-118.49,30.13-177.98C1401.46,2122.65,1402.83,2113.17,1404.18,2103.68z"/>
			</g>
		</g>
		<g>
			<g>
				<path class="st4" d="M1361.78,2149.74c-5.52-9.14-16.31-17.49-23.31-22.98c-10.44-8.19-27.86,1.94-36.92,8.67
					c-8.9,6.61-18.7,16.13-14.66,28.14c6.25,18.6,17.6,35.32,26.52,52.74c9.24,18.04,17.56,36.63,23.4,56.07
					c-1.89-6.3,1.7-17.72,3.19-23.95c1.84-7.69,4.7-14.94,7.57-22.29c5.3-13.57,11.15-27.3,15.26-41.29
					C1366.04,2173.93,1368.01,2159.98,1361.78,2149.74z"/>
			</g>
		</g>
		<g>
			<g>
				<g>
					<path class="st3" d="M1347.27,2223.03c-1.22-1.17-2.66-1.84-4.11-2.7c-10.86-6.43-16.36-18.48-11.11-30.68
						c4.65-10.81,15.4-16.6,26.71-16.83c2.1-0.04,3.93,0.32,5.85,1.13c2.5,1.06,5.15,2.62,7.31,4.3c1.31,1.01,3.11,2.38,4.03,3.78
						c0.42,0.64,0.19,1.62,0.19,2.35c0,1.15,0.13,2.23-0.07,3.38c-0.44,2.54-1.83,4.98-2.89,7.32c-1.04,2.29-2.49,4.18-3.7,6.33
						c-0.94,1.66-1.56,3.38-2.72,4.93c-0.94,1.25-1.66,2.6-2.53,3.89c-0.73,1.08-1.47,2.23-2.26,3.26
						C1361.49,2214.14,1360.22,2214.92,1347.27,2223.03z"/>
				</g>
			</g>
			<g>
				<g>
					<g>
						<path class="st3" d="M1350,2218.36c-10.28-7.64-20.19-16.79-10.78-30.3c3.34-4.79,8.38-7.84,14.05-9.12
							c4.46-1.01,15.24-0.08,17.46,5.45c2.04,5.08-8.98,20.98-12.29,24.77c-2.45,2.81-9.71,6.57-13.91,9.2
							c-5.89,3.69-0.46,13.06,5.47,9.35c4.85-3.03,10.92-5.77,15.12-9.76c3.92-3.72,6.39-9.17,9.04-13.79
							c3.65-6.35,8.38-13.24,7.46-20.98c-0.83-6.95-8.91-11.85-14.92-14.17c-15.07-5.82-33.52,4.38-39.6,18.56
							c-3.15,7.34-3.25,15.59,0.02,22.9c3.71,8.29,10.47,12.09,17.41,17.24C1350.13,2231.87,1355.54,2222.47,1350,2218.36z"/>
					</g>
				</g>
			</g>
		</g>
	</g>
	<g>
		<g>
			<path class="st4" d="M1303.58,2328.89c1.93-32.68-1.58-36.74-15.3-65.08c-9.81-20.25-25.12-43.65-33.63-64.49
				c-8-19.6-24.68-53-9.47-72.96c3.31-4.35,8.13-7.24,12.82-10.03c19.29-11.47,38.55-22.96,57.79-34.51
				c14.75-8.87,36.42-31.99,73.36,9.66c-0.86-1.03-23.7-30.72-24.57-31.68c-3.59-3.96-7.41-7.98-12.37-9.97
				c-19.08-7.68-38.05,9.15-53.31,18.33c-19.24,11.55-38.5,23.05-57.79,34.51c-4.69,2.79-9.51,5.69-12.82,10.03
				c-15.21,19.96,1.47,53.35,9.47,72.96c8.5,20.84,18.07,41.22,27.88,61.48c13.73,28.33,27.48,47.14,25.55,79.82
				c-1.45,24.58,5.59,45.26,27.1,55.81C1309.92,2371.69,1302.62,2345.3,1303.58,2328.89z"/>
		</g>
	</g>
	<g>
		<g>
			<path class="st1" d="M2518.48,1447.92c15.31,8.22,30.05,17.39,45.34,25.62c5.1,2.74,10.25,5.38,15.51,7.85
				c6.62,3.37,13.25,6.77,19.9,10.19c6.64,3.42,13.29,6.86,19.95,10.32c65.36,34.83,123.84,80.31,195.32,99.81
				c-41.15,38.99-97.47,43.32-149.45,49.82c25.99,34.66,64.98,56.32,101.06,78.19c5,3.01,9.98,6,14.98,8.91
				c15,8.74,30.16,16.86,46.41,23.36c-56.32,30.32-132.13,71.48-195.53,37.58c-3.69-3.39-6.65-7.47-9.09-12.01
				c-9.73-18.18-11.01-43.86-17.75-63.11c-1.61-6.18-3.01-12.15-4.26-17.7c-1.97-7.65-3.9-15.18-5.99-22.3
				c-2.07-7.1-4.31-13.78-6.9-19.71c-2.05-6.11-4.2-12.2-6.46-18.27c-2.25-6.07-4.61-12.12-7.07-18.15
				c-1.64-4.56-3.29-9.15-4.94-13.77c-1.1-3.47-2.22-7.02-3.53-10.84C2553.81,1564.12,2538.31,1513.31,2518.48,1447.92z"/>
		</g>
	</g>
	<g>
		<g>
			<path class="st1" d="M1750.6,1319.69c-77.26-87.21-189.36-126.71-304.69-126.21c-11.1-0.43-22.05-0.32-32.91,0.51
				c-10.86,0.83-21.68,2.42-32.39,4.84c15.92,7.58,29.45,17.82,40.97,29.84c21.17,21.96,36.12,50.79,45.73,80.68
				c-23.49-5.34-48.04-8.54-72.66-8.95c-11.93-0.31-23.89,0.08-35.78,1.18c-11.89,1.09-23.73,2.89-35.42,5.37
				c-5.19,1.11-10.37,2.32-15.53,3.62c-15.48,3.91-30.83,8.59-46.02,13.51c-4.8,1.23-9.57,2.39-14.33,3.54
				c-4.75,1.14-9.5,2.25-14.24,3.34c5.42,4.33,11.25,8.24,17.3,11.94c8.71,4.82,18.26,9.21,27.75,13.88
				c3.17,1.56,6.32,3.15,9.44,4.8c3.58,2.15,7.13,4.41,10.6,6.79c2.7,2.08,5.43,4.18,8.15,6.3c13.41,9.41,27.29,19.02,36.9,33.97
				c-8.19-2.14-16.49-2.85-24.77-2.42c-4.14,0.21-8.28,0.71-12.4,1.44c-55.72,12.73-108.03,46.89-132.59,100.27
				c55.52-12.81,112.1,5.34,163.8,24.59c4.89,2.22,9.73,4.52,14.54,6.87c11.74,5.34,25.62,3.2,38.18,3.87
				c5.54-0.31,11.1-0.88,16.62-1.73c33.12-5.08,64.76-19.96,90.87-43.38c9.82-6.69,19.58-12.99,30.02-18.12
				c39.93-15.87,71.95-40.43,106.12-67.12c38.43-28.83,84.34-32.03,124.91-58.72c7.47-4.27,11.74-12.81,14.32-21.49
				C1765.02,1329.92,1757.78,1325.14,1750.6,1319.69z"/>
		</g>
	</g>
	<g>
		<g>
			<path class="st1" d="M2576.62,2116.81c149.07-146.88,58.1-365.65-27.25-520.84c-8.89-18.22-17.99-35.98-27.06-53.13
				c-7.9-15.08-16.11-29.93-24.53-44.54c-8.43-14.61-17.08-28.96-25.88-43.03c-10.65-12.75-22.76-24.66-37.23-35.46
				c-17.84-14.87-36.36-27.58-55.5-38.62c-57.4-32.69-120.25-50.75-191.07-40.66c-22.52,5.35-44.99,14.25-67.26,27.25
				c-14.08,8.66-26.4,19.76-36.55,32.52c-30.46,38.28-41.42,91.48-21.93,138.59c13,28.16,43.32,45.49,71.48,49.82
				c15.88,1.44,32.01,3.79,47.96,7.23c32.56,4.81,61.97,17.88,87.33,36.65c12.68,9.38,24.35,20.18,34.86,32.13
				c10.15,12.8,23.15,23.63,29.65,38.79c7.04,19.22,13.57,38.54,19.84,57.9c47.31,134.87,79.8,277.83,155.61,401.29
				c13-17.33,0-51.98,32.3-48.91C2551.5,2113.03,2560.49,2113.6,2576.62,2116.81z"/>
		</g>
	</g>
	<g>
		<g>
			<path class="st10" d="M1842.01,2894.5c3.4,0.94,6.7,2,9.86,3.24C1848.72,2896.5,1845.41,2895.44,1842.01,2894.5z"/>
		</g>
	</g>
	<g>
		<g>
			<path class="st10" d="M1836.84,2893.18c-1.75-0.42-3.51-0.81-5.29-1.18c-5.34-1.12-10.8-2.08-16.27-3.05
				c5.47,0.97,10.93,1.93,16.27,3.05C1833.32,2892.37,1835.09,2892.76,1836.84,2893.18z"/>
		</g>
	</g>
	<g>
		<g>
			<path class="st10" d="M1876.46,2917.05c0.71,0.99,1.39,1.99,2.02,3.02C1877.85,2919.04,1877.17,2918.04,1876.46,2917.05z"/>
		</g>
	</g>
	<g>
		<g>
			<path class="st10" d="M1864.61,2880.01c-2.66,0.06-5.32,0.12-8,0.16c-4.41,0.15-8.84,0.24-13.29,0.25
				c4.44-0.01,8.87-0.1,13.29-0.25C1859.29,2880.13,1861.96,2880.07,1864.61,2880.01z"/>
		</g>
	</g>
	<g>
		<g>
			<path class="st10" d="M1768.62,2875.27L1768.62,2875.27c13.74,7.75,30.25,10.76,46.66,13.68
				C1798.87,2886.04,1782.36,2883.02,1768.62,2875.27z"/>
		</g>
	</g>
	<g>
		<g>
			<path class="st3" d="M1529.98,1767.89c-28.09,98.07-71.41,189.04-101.25,285.79c-5.06,17.17-10.19,34.34-15.44,51.49
				c-9.12,24.81-17.67,50.31-25.46,76.3c-7.79,26.04-14.79,52.6-20.76,79.59c-31.14,114.36-33.72,237.6-4.83,351.8
				c30.04,118.74,114.25,215.86,196.19,302.99c79.28,84.3,157.78,188.81,270.06,228.32c18.53,6.52,37.83,11.47,57.98,14.59
				c16.97,1.86,34.41,2.36,52.32,1.39c16.63-0.27,33.23-1.35,49.69-3.23c16.11-3.68,31.99-8.15,47.62-13.34
				c105.36-35.02,185.25-135.2,263.02-209.79c189.6-181.86,340.98-410.29,250.21-683.68c-6.11-24.45-12.57-48.69-19-72.7
				c-4.28-16-8.55-31.91-12.68-47.67c-17.22-77.51-47.54-151.16-58.37-229.13c-21.66-153.79-82.31-320.57-251.34-347.06
				c-19.35-4.42-39.13-8.46-59.27-12.07c-181.13-32.31-392.16-32.72-537.52,86.02c-9.23,9.54-17.87,19.73-25.82,30.39
				c-15.91,21.33-29.09,44.56-38.74,68.95C1540.54,1740.14,1535.08,1753.86,1529.98,1767.89z"/>
		</g>
	</g>
	<g>
		<g>
			<path class="st3" d="M1529.98,1767.89c-28.09,98.07-71.41,189.04-101.25,285.79c-5.06,17.17-10.19,34.34-15.44,51.49
				c-9.12,24.81-17.67,50.31-25.46,76.3c-7.79,26.04-14.79,52.6-20.76,79.59c-31.14,114.36-33.72,237.6-4.83,351.8
				c30.04,118.74,114.25,215.86,196.19,302.99c79.28,84.3,157.78,188.81,270.06,228.32c18.53,6.52,37.83,11.47,57.98,14.59
				c16.97,1.86,34.41,2.36,52.32,1.39c16.63-0.27,33.23-1.35,49.69-3.23c16.11-3.68,31.99-8.15,47.62-13.34
				c105.36-35.02,185.25-135.2,263.02-209.79c189.6-181.86,340.98-410.29,250.21-683.68c-6.11-24.45-12.57-48.69-19-72.7
				c-4.28-16-8.55-31.91-12.68-47.67c-17.22-77.51-47.54-151.16-58.37-229.13c-21.66-153.79-82.31-320.57-251.34-347.06
				c-19.35-4.42-39.13-8.46-59.27-12.07c-181.13-32.31-392.16-32.72-537.52,86.02c-9.23,9.54-17.87,19.73-25.82,30.39
				c-15.91,21.33-29.09,44.56-38.74,68.95C1540.54,1740.14,1535.08,1753.86,1529.98,1767.89z"/>
		</g>
	</g>
	<g>
		<g>
			<path class="st4" d="M1674.09,2790.85c0,0,164.62-32.49,312.99,13C1987.08,2803.84,1862.53,2901.31,1674.09,2790.85z"/>
		</g>
	</g>
	<rect x="1761.51" y="2965.93" class="st3" width="321.55" height="389.41"/>
	<g>
		<g>
			<ellipse class="st4" cx="2146.64" cy="2255.06" rx="63.59" ry="67.99"/>
		</g>
	</g>
	<g>
		<g>
			<path class="st3" d="M2500.43,2095.56c16.26-8.89,27.31-30.32,39.6-43.88c3.59-3.96,7.41-7.98,12.37-9.97
				c19.08-7.68,38.05,9.15,53.31,18.33c19.24,11.55,38.5,23.05,57.79,34.51c4.69,2.79,9.51,5.69,12.82,10.03
				c15.21,19.96-1.47,53.35-9.47,72.96c-8.5,20.84-18.07,41.22-27.88,61.48c-13.73,28.33-27.48,47.14-25.55,79.82
				c1.62,27.5-7.36,50.12-35.36,59.14c-4.59,1.48-9.56,2.42-14.21,1.14c-19.12-5.23-25.93-61.91-29.18-77.14
				c-12.55-58.83-21.41-118.49-30.13-177.97C2503.15,2114.53,2501.78,2105.04,2500.43,2095.56z"/>
		</g>
	</g>
	<g>
		<g>
			<path class="st4" d="M2676.32,2104.58c-3.31-4.35-8.13-7.24-12.82-10.03c-19.29-11.47-38.55-22.96-57.79-34.51
				c-4.01-2.41-8.27-5.35-12.72-8.23c-1.49-0.98-3-1.95-4.6-2.92c-1.61-1.57-3.26-2.93-4.94-4.1
				c-22.89-17.99-47.54,5.41-58.12,25.82c0.87-1.68,3.38-3.34,4.8-4.56c1.87-1.6,3.83-3.11,5.85-4.51
				c4.18-2.89,8.68-5.37,13.43-7.21c8.79-3.4,19.13-4.66,27.61,0.3c2.94,1.72,5.1,4.27,7.72,6.33c2.93,2.31,6.08,4.39,9.18,6.47
				c17.53,11.76,36.37,21.66,54.49,32.49c4.69,2.79,9.51,5.69,12.82,10.03c15.21,19.96-1.47,53.35-9.47,72.96
				c-8.5,20.84-18.07,41.22-27.88,61.48c-13.73,28.33-27.48,47.14-25.55,79.82c1.42,24.06-5.28,44.39-25.74,55.14
				c1.85-0.31,3.69-0.8,5.47-1.37c28.01-9.01,36.99-31.64,35.36-59.14c-1.93-32.68,11.82-51.49,25.55-79.82
				c9.81-20.25,19.37-40.64,27.88-61.48C2674.85,2157.94,2691.52,2124.54,2676.32,2104.58z"/>
		</g>
	</g>
	<g>
		<g>
			<path class="st4" d="M2543.3,2125.98c5.98-8.85,17.19-16.63,24.46-21.74c10.85-7.64,27.72,3.37,36.43,10.56
				c8.54,7.06,17.84,17.07,13.19,28.86c-7.2,18.25-19.4,34.37-29.2,51.3c-10.16,17.54-19.43,35.68-26.27,54.79
				c2.22-6.2-0.78-17.78-1.95-24.08c-1.44-7.78-3.92-15.17-6.41-22.65c-4.6-13.82-9.73-27.84-13.1-42.02
				C2537.8,2149.92,2536.55,2135.88,2543.3,2125.98z"/>
		</g>
	</g>
	<g>
		<g>
			<g>
				<path class="st3" d="M2553.55,2209.39c1.13-1.26,2.51-2.05,3.88-3.02c10.31-7.28,14.82-19.74,8.6-31.48
					c-5.51-10.4-16.69-15.31-27.98-14.62c-2.1,0.13-3.89,0.64-5.74,1.6c-2.41,1.26-4.93,3.03-6.94,4.87
					c-1.22,1.12-2.91,2.62-3.71,4.09c-0.36,0.67-0.06,1.63,0,2.36c0.09,1.14,0.05,2.24,0.34,3.37c0.64,2.5,2.22,4.82,3.47,7.07
					c1.22,2.2,2.82,3.96,4.2,6.02c1.07,1.58,1.83,3.24,3.11,4.69c1.03,1.17,1.86,2.46,2.84,3.67c0.82,1.02,1.65,2.1,2.52,3.07
					C2538.66,2201.67,2539.99,2202.35,2553.55,2209.39z"/>
			</g>
		</g>
		<g>
			<g>
				<g>
					<path class="st3" d="M2550.45,2204.95c9.63-8.45,18.77-18.37,8.3-31.07c-3.71-4.5-8.98-7.14-14.74-7.96
						c-4.53-0.64-15.2,1.15-16.96,6.84c-1.62,5.23,10.64,20.19,14.25,23.7c2.67,2.6,10.21,5.77,14.6,8.05
						c6.17,3.2,1.52,12.98-4.69,9.76c-5.08-2.63-11.35-4.87-15.85-8.51c-4.2-3.4-7.1-8.62-10.12-13.02
						c-4.15-6.03-9.42-12.52-9.13-20.31c0.26-7,7.93-12.53,13.73-15.32c14.55-7.01,33.76,1.66,40.96,15.3
						c3.73,7.06,4.5,15.28,1.82,22.83c-3.03,8.56-9.46,12.89-15.96,18.59C2551.41,2218.43,2545.26,2209.5,2550.45,2204.95z"/>
				</g>
			</g>
		</g>
	</g>
	<g>
		<g>
			<ellipse class="st4" cx="1705.67" cy="2268.4" rx="63.59" ry="67.99"/>
		</g>
	</g>
	<g class="st11">
		<g>
			<path class="st4" d="M1594.95,2928.65c-81.94-87.13-166.15-184.25-196.18-302.99c-6.62-26.17-11.59-52.82-14.94-79.72
				c-1.12-8.97-2.05-17.97-2.82-26.96c-4.43-58.23-3.36-116.95,5.76-175.61c1.05-7.85,2.23-15.66,3.54-23.45
				c6.54-38.94,16.31-77.42,29.02-115.53c1.97-4.88,3.94-7.9,5.82-7.62c1.01-1.48,8.54,1.27,16.21,4.17
				c7.67,2.9,12.12,5.68,13.72,4.83c0.04-5.6,0.96-11.05,1.56-18.34c4.17-50.14,9.27-98.38,15.82-147.83
				c1.36-10.91,2.78-21.82,4.22-32.73c0.42-4.02,0.86-8.04,1.31-12.05c1.37-12.05,2.91-24.09,4.68-36.13
				c9.2-61.65,26.28-123.57,48.7-182.29c-42.71,54.45-68.33,120.64-84.72,187.63c-2.79,10.79-5.48,21.6-8.16,32.4
				c-2.68,10.8-5.35,21.58-8.1,32.31c-2.9,12.72-5.67,25.19-8.59,37.58c-2.77,12.19-5.68,24.29-8.88,36.24
				c-2.18,8.38-4.3,16.75-6.41,25.5c-2.09,6.8-4.66,13.48-8.2,19.88c-3.61,11.11-7.13,22.28-10.5,33.53
				c-2.6,8.68-5.11,17.42-7.52,26.21c-1.21,4.4-2.39,8.81-3.56,13.24c-11.91,45.52-23.65,90.37-28.95,137.11
				c-0.84,6.55-1.58,13.11-2.24,19.68c-7.85,78.86-2.58,159.01,16.68,235.14c30.04,118.74,114.25,215.86,196.18,302.99
				c79.28,84.3,157.78,188.81,270.06,228.32c6.32,2.22,12.73,4.25,19.23,6.1C1744.54,3106.6,1670.09,3008.55,1594.95,2928.65z"/>
		</g>
	</g>
	<g class="st11">
		<g>
			<path class="st4" d="M2530.32,2177.41c-4.28-16-8.55-31.91-12.68-47.67c-6.72-30.27-15.45-59.95-24.23-89.53h-5.35v-18.07
				c-3-10.17-5.97-20.35-8.81-30.54c-0.09-1.28-0.22-2.57-0.41-3.84c3.07-0.04,6.14-0.1,9.21-0.17v-110.71h222.17
				c-34.93-136.7-66.7-277.95-174.55-380.42c-84.47-79.6-192.1-94.63-299.92-92.47c-35.94,0.72-71.9,3.35-107.03,6.13
				c-181.43,11.8-375.72,66.9-520.01,182.73c3.19,7.78,1.45,17.58-4.58,23.55c-9.91,9.8-20.9,18.44-30.82,28.25
				c-2.76,2.73-5.46,5.53-8.04,8.44c-0.39,0.44-3.82,3.87-3.64,4.3c1.91-2.52,2.19-2.88,0.84-1.08c-0.52,0.71-1.04,1.43-1.54,2.16
				c-0.06,0.09-0.11,0.18-0.17,0.26c2.49,6.13,2.06,13.51-0.98,19.54c-2.27,4.5-4.43,9.05-6.47,13.66c-0.37,0.85-0.74,1.7-1.11,2.55
				c-0.12,0.28-0.26,0.63-0.45,1.09c-0.71,1.77-1.43,3.54-2.13,5.31c-3.51,8.94-6.7,17.99-9.79,27.08
				c-6.18,18.21-11.88,36.59-18.61,54.61c-11.65,31.23-26.27,60.69-45.37,87.8v52.02c11.73-39.78,26.21-78.68,44.4-116.29
				c6.38-11.86,13.34-23.16,20.99-33.86c11.48-16.04,24.51-30.8,39.42-43.88c66.92-60.79,175.22-67.29,244.54-13.14
				c119.13,90.97,223.1,190.61,362.32,233.31c42.71,13.46,202.76,46.74,217.88,47.8c4.35,0.3,11.3,1.9,15.66,2.14
				c16.73,71.16,11.56,144.74,31.67,215.13c14.87-9.3,38.08-19.4,53.22-26.52c4.94,18.56,6.72,25.43,11.42,44.26
				c90.76,273.38-60.61,501.82-250.21,683.68c-77.77,74.59-157.66,174.77-263.02,209.79c-15.63,5.2-31.51,9.66-47.62,13.34
				c-16.46,1.87-33.06,2.96-49.69,3.23c-17.91,0.97-35.36,0.47-52.32-1.39c-20.15-3.12-39.45-8.07-57.98-14.59
				c-13.84-4.87-27.17-10.74-40.05-17.43c22.51,14.77,46.35,27.19,71.96,36.21c18.53,6.52,37.83,11.47,57.98,14.59
				c16.97,1.86,34.41,2.36,52.32,1.39c16.63-0.27,33.23-1.35,49.69-3.23c16.11-3.68,31.99-8.15,47.62-13.34
				c105.36-35.02,185.25-135.2,263.02-209.79c189.6-181.86,340.98-410.29,250.21-683.68
				C2543.21,2225.66,2536.75,2201.42,2530.32,2177.41z"/>
		</g>
	</g>
	<g>
		<g>
			<path class="st12" d="M1653.63,2742.28c52.04-80.24,136.15-137.84,228.46-162.89c92.3-25.04,192.04-18.4,282.29,13.24
				c21.97,7.7,45.95,18.54,59.68,38.27c14.14,20.31,9.57,60.98,2.73,83.8c-9.57,31.91-35.67,49.5-68.9,47.86
				c-44.3-2.19-89.81-13.63-133.57-20.82C1901.25,2721.51,1772.87,2705.73,1653.63,2742.28z"/>
		</g>
	</g>
	<g>
		<g>
			<path class="st4" d="M2070.47,2131.26c0,0,84.5,51.35,206.87,29.48l-30.34-29.48l-124.55-27.04l-10.83-13.02
				C2111.63,2091.2,2056.39,2098.74,2070.47,2131.26z"/>
		</g>
	</g>
	<g>
		<g>
			<path class="st4" d="M2116.02,2029.4c-11.97-9.65-24.97-26.98-40.13-9.65c-64.98,75.81-80.14,173.28-93.04,267.16
				c-0.91,12.76-1.43,25.43-1.52,38.11c-0.09,12.69,0.25,25.4,1.05,38.13c0.58,9.26,1.41,18.49,2.51,27.58
				c0.03,10.23,6.52,27.56,0.03,31.89c-41.15,23.83-125.63,4.33-127.79,62.81c67.15-17.33,138.62-19.49,205.77,4.33
				c-4.33-25.99-6.5-51.98-14.38-77.1c-2.07-8.87-3.95-17.84-5.61-26.86c-5.4-29.33-8.56-59.3-8.74-89.07
				c-0.09-14.88,0.56-29.74,2.05-44.54c5.02-78.67,50.5-141.48,98.16-199.96c0-2.17-4.33-6.5-5.88-7.84
				C2126.3,2037.59,2121.88,2031.2,2116.02,2029.4z"/>
		</g>
	</g>
	<g>
		<g>
			<path class="st0" d="M1817.56,2662.93c19.92-0.92,39.23-6.19,58.89-9.19c20.8-3.18,42.27-3.5,63.27-4.17
				c74.87-2.41,146.29,8.55,216.76,34.02c24.03,8.68,47.6,18.49,70.95,28.8c6.46-23.16,10.3-61.83-3.38-81.48
				c-13.73-19.73-37.71-30.57-59.68-38.27c-90.26-31.64-189.99-38.28-282.29-13.24c-22.21,6.03-43.94,13.96-64.87,23.62
				C1817.67,2622.98,1815.21,2643.03,1817.56,2662.93z"/>
		</g>
	</g>
	<g>
		<g>
			<path class="st13" d="M1816.73,2652.42c0.27-9.35,0.7-18.72,0.48-28.06c20.93-9.66,42.66-17.59,64.87-23.62
				c92.3-25.04,192.03-18.4,282.29,13.24c21.97,7.7,45.95,18.54,59.68,38.27c5.18,7.44,7.84,17.61,8.81,28.63
				c1.4-18.49-0.37-37.85-8.81-49.98c-13.73-19.73-37.71-30.57-59.68-38.27c-90.26-31.64-189.99-38.28-282.29-13.24
				c-22.21,6.03-43.94,13.96-64.87,23.62C1817.59,2619.47,1815.99,2635.98,1816.73,2652.42z"/>
		</g>
	</g>
	<g>
		<g>
			<path class="st1" d="M1787.81,1998.09c0,0-110.47,163.53-236.82,142.96v41.88c0,0,177.25,19.85,236.82-90.61V1998.09z"/>
		</g>
	</g>
	<g class="st14">
		<g>
			<path class="st15" d="M1565.67,2165.43c98.89,16.1,188.05-80.57,222.13-123.35v-43.99c0,0-110.47,163.53-236.82,142.96v41.88
				c0,0,5.42,0.61,14.68,1.02V2165.43z"/>
		</g>
	</g>
	<g>
		<g>
			<path class="st1" d="M2069.61,1943.73c0,0,85.76,177.74,213.76,175.58l-6.03,41.44c0,0-178.26-5.88-221.3-123.78L2069.61,1943.73
				z"/>
		</g>
	</g>
	<g class="st14">
		<g>
			<path class="st15" d="M2069.61,1943.73l-6.24,42.89c30.93,50.59,102.41,147.1,196.94,145.5l-3.91,26.84
				c12.97,1.53,20.94,1.79,20.94,1.79l6.03-41.44C2155.37,2121.47,2069.61,1943.73,2069.61,1943.73z"/>
		</g>
	</g>
	<g>
		<g>
			<path class="st1" d="M2747.35,1935.27c-47.65-160.29-67.15-340.06-197.11-463.53c-84.47-79.6-192.1-94.63-299.92-92.47
				c-35.94,0.72-71.9,3.35-107.03,6.13c-195.2,12.69-405.31,75.51-551.99,210.16c-9.18,9.57-17.76,19.67-25.57,30.33
				c-8.1,12.81-17.02,25.72-23.92,39.21c-1.2,14.28-3.33,28.19-6.24,41.81c-2.91,13.62-6.59,26.94-10.9,40.04
				c-27.12,82.18-76.94,155.83-113.76,235.97c-10.83,28.16-10.77,61.15-19.17,91.65c-2.42,11.83-2.35,23.17-3.57,35.03
				c-1.21,11.87-1.6,23.77-0.71,35.76c2.17,13,36.2,19.49,53.52,30.32c1.78-17.44,3.87-31.05,6.29-46.67
				c13.45-120.11,35.11-239.24,87.55-347.63c6.38-11.86,13.34-23.16,20.99-33.86c11.48-16.04,24.51-30.8,39.42-43.88
				c66.92-60.79,175.22-67.29,244.54-13.14c119.13,90.97,223.1,190.61,362.32,233.31c42.71,13.47,163.82,31.03,178.86,32.89
				c15.04,1.87,30.13,3.33,45.25,4.38c4.35,0.3,8.71,0.56,13.06,0.8c16.73,71.16,10.71,143.42,30.82,213.8
				c17.33-10.83,47.65-17.33,49.82-30.32c4.33-58.48-21.66-114.8-25.99-175.45c0-2.3-0.18-4.6-0.51-6.88
				c7.9-0.09,15.79-0.29,23.69-0.62C2536.69,1961.63,2748.97,1940.71,2747.35,1935.27z"/>
		</g>
	</g>
	<g>
		<g>
			
				<ellipse transform="matrix(0.2414 -0.9704 0.9704 0.2414 -553.0024 3788.3662)" class="st1" cx="2146.64" cy="2247.9" rx="52.04" ry="52.04"/>
		</g>
	</g>
	<g>
		<g>
			
				<ellipse transform="matrix(0.9213 -0.3888 0.3888 0.9213 -745.1865 841.183)" class="st1" cx="1705.67" cy="2261.68" rx="52.04" ry="52.04"/>
		</g>
	</g>
	<g class="st14">
		<g>
			<path class="st15" d="M2747.58,1766.41c-45.63-4.43-95.58-10.91-126.71-44.57c4.1,44.44,12.17,88.51,24.07,131.52
				c-0.28-1.01-113.66,4.35-124.43,4.15c-20.78-0.39-41.77-1.25-62.83-2.66c-10.53-0.7-21.08-1.54-31.64-2.53
				c-10.56-0.98-21.12-2.11-31.67-3.38c-109.83-5.66-212.4-40.29-301.47-100.7c-11.13-7.55-22.06-15.5-32.78-23.8
				c-13.06-11.04-26.94-20.65-39.75-32.39c-74.73-73.67-156.94-163.35-268.99-154.95c-12.29,0.89-24.46,2.84-36.44,5.69
				c-47.89,11.41-92.57,37.12-130.04,70.52c-7.03,6.26-13.8,12.8-20.25,19.52c-23.65,23.98-42.87,50.67-56.75,80.56
				c16.01-27.76,37.37-53.38,61.49-74.41c6.69-6.01,13.64-11.74,20.9-17.17c7.27-5.43,14.82-10.54,22.6-15.3
				c31.12-19.03,65.94-32.35,101.41-37.17c11.82-1.6,23.71-2.25,35.55-1.8c102.89,3.85,164.81,93.53,236.34,157.59
				c17.08,14.95,34.16,27.76,51.2,40.06c11.32,8.24,22.88,16.12,34.68,23.63c82.56,52.56,176.37,86.79,275.96,95.68
				c14.83,1.99,29.7,3.63,44.56,4.95c16.27,1.53,32.57,2.72,48.88,3.62c81.57,4.49,163.5,1.61,245.21-1.27
				c-12.73-37.02-21.21-75.5-25.2-114.44C2690.5,1777.45,2719.52,1773.75,2747.58,1766.41z"/>
		</g>
	</g>
	<g>
		<g class="st16">
			<g>
				<path class="st0" d="M1677.23,2247.86c0-9.03,7.32-16.34,16.34-16.34c9.03,0,16.34,7.32,16.34,16.34
					c0,9.03-7.32,16.34-16.34,16.34C1684.54,2264.21,1677.23,2256.89,1677.23,2247.86z"/>
			</g>
		</g>
		<g class="st16">
			<g>
				
					<ellipse transform="matrix(0.9734 -0.2289 0.2289 0.9734 -474.2198 454.7938)" class="st0" cx="1723.29" cy="2271.53" rx="8.6" ry="8.6"/>
			</g>
		</g>
	</g>
	<g>
		<g class="st16">
			<g>
				<path class="st0" d="M2118.09,2237.05c0-9.03,7.32-16.34,16.34-16.34c9.03,0,16.34,7.32,16.34,16.34s-7.32,16.34-16.34,16.34
					C2125.41,2253.39,2118.09,2246.08,2118.09,2237.05z"/>
			</g>
		</g>
		<g class="st16">
			<g>
				<path class="st0" d="M2155.55,2260.72c0-4.75,3.85-8.6,8.6-8.6c4.75,0,8.6,3.85,8.6,8.6c0,4.75-3.85,8.6-8.6,8.6
					C2159.4,2269.32,2155.55,2265.47,2155.55,2260.72z"/>
			</g>
		</g>
	</g>
	<g class="st14">
		<g>
			<path class="st15" d="M1404.18,2030c-13.17-75.99-53.24-152.38-69.45-227.9c-15.15-70.59-22.29-145.26-2.08-215.63
				c7.5-26.11,18.84-60.21,37.48-80.68c-130.25,143.06-46.98,345.91-6.39,508.5c1,4.27,2.01,8.59,3.98,12.52
				c1.74,3.48,4.19,6.55,6.62,9.59c9.92,12.42,19.84,24.84,29.76,37.26C1401.38,2057.8,1407.57,2045.76,1404.18,2030z"/>
		</g>
	</g>
	<path class="st5" d="M1932.12,3338.63c-45.62,1.42-90.29-8.35-134.53-21.59c-11.35-3.54-21.22-7.06-29.32-10.24
		c-16.21-6.35-25.37-11.33-25.37-11.33l-39.72,10.32l-18.15,39.84c0,0,33.5,55.83,40.48,62.81c6.98,6.98,64.21,13.96,72.4,13.96
		c0,0,33.89,0,67.79,0c11.3,0,22.6,0,32.64,0.01c11.89-0.01,30.03,2.78,32.82-1.4c9.77-19.54,0-46.06,1.27-69.65
		C1932.25,3343.71,1932.12,3338.63,1932.12,3338.63z"/>
	<path class="st5" d="M1932.12,3338.63c57.67,4.21,114.9-9.75,166.54-31.61c16.27-6.57,25.43-11.55,25.43-11.55l39.72,10.32
		l18.15,39.84c0,0-33.5,55.83-40.48,62.81s-64.21,13.96-72.4,13.96c0,0-15.06,0-35.15,0c-10.04,0-21.34,0-32.64,0
		c-22.65,0-44.99,0-67.32,0c0-23.73-2.79-47.46-1.52-71.05C1932.25,3343.71,1932.12,3338.63,1932.12,3338.63z"/>
	<g>
		<path class="st3" d="M2649.4,2085.65c-19.94-6.5-36.88-17.43-52.46-30.29c-5.19-4.29-10.23-8.79-15.18-13.41
			c-4.56-5.58-9.44-10.91-14.53-16.05c-5.11-5.19-10.45-10.19-15.9-15.15c-45.09-45.58-131.63-100.02-105.11-157.24
			c26.52-54.44,85.15,47.46,131.21,68.4c4.19,1.4,9.77,2.79,14.38,3.54c6.01,0.2,11.91-1.68,17.73-6.33
			c36.29-29.31-12.56-89.33-29.77-132.64c-3.11-5.47-6.36-10.85-9.73-16.15c-26.88-42.43-61-80.58-94.5-120.6
			c-11.17-12.56-11.17-37.69,5.58-37.69c75.72-2.44,135.42,61.37,164.36,131.03c4.16,10.01,7.7,20.15,10.62,30.38
			c5.08,11.68,9.27,24.24,16.25,34.01c1.4-20.94,5.58-40.48,3.42-61.09c-0.08-3.01-0.28-5.95-0.59-8.84
			c-4.23-27.79-20.98-51.51-27.96-79.43c-2.79-12.56,0-34.9,16.75-33.5c39.08,4.19,64.21,41.87,76.25,77
			c1.47,4.88,2.65,9.74,3.66,14.63c12.22,113.55,19.2,226.61,17.8,339.67c-1.4,47.46-65.6,41.87-100.14,33.28
			C2657.76,2088.12,2653.72,2086.94,2649.4,2085.65z"/>
	</g>
	<g>
		<path class="st3" d="M1124.38,3299.78c27.46-43.74,63.23-82.38,99.76-118.67c27.7-27.52,56.2-54.34,81.79-83.85
			c4.34-5.65,8.54-11.41,12.58-17.28c-26.52-17.19-54.19-33.88-81.29-51.13c-13.55-8.63-26.95-17.39-39.96-26.44
			c-73.82-41.37-112.08-104.17-126.35-174.79c-3.57-17.66-5.64-35.81-6.38-54.27c-0.39-16.05,0.01-32.1,1.15-48.11
			c1.13-16.01,2.99-31.97,5.51-47.85c2.17-14.13,4.65-28.18,7.81-42.01c3.16-13.83,7-27.44,11.88-40.7
			c16.19-56.95,32.16-113.9,49.7-170.18c8.77-28.14,18.02-56.25,28.33-84.72c7.12-22.86,16.89-45.2,26.66-67.53
			c44.67-99.1,82.35-198.21,120.08-298.44c2.83-12.65,2.2-25.04-8.13-34.46c-9.91-5.24-21.5-5.06-31.65-6.9
			c-10.16-1.83-18.88-5.67-23.07-18.93c-6.98-27.92,16.75-50.25,15.35-78.17c-1.4-9.77-6.98-18.15-16.31-20.72
			c-4.06-2.26-8.23-4.12-12.31-5.45c-12.22-3.96-23.62-3.01-29.14,7.31c-5.62,9.62-10.39,19.49-14.6,29.54
			c-3.8,9.51-6.98,19.17-9.93,28.86c-0.98,3.23-1.94,6.47-2.91,9.72c-4.86,20.03-11.82,39.47-20.34,58.2
			c-17.29,37.69-42.42,71.19-59.17,108.88c-7.21,16.05-14.19,32.14-21.06,48.24c-6.84,16.13-13.55,32.32-20.19,48.88
			c-11.79,35.48-25.75,68.98-41.1,102.48c-6.92,15.27-13.87,30.47-20.82,45.65c-6.95,15.17-13.91,30.31-20.84,45.43
			c-28.13,59.67-54.65,121.08-80.24,183.09c-5.39,13.3-10.68,26.67-15.83,40.13c-33.95,97.47-74.43,195.17-87.02,298.71
			c0.6,14.72,2.71,29.39,6.05,43.95c53.35,167.36,174.2,303.9,312.6,409.97C1117.27,3311.83,1120.4,3305.67,1124.38,3299.78z"/>
	</g>
	<g>
		<path class="st3" d="M1296.76,1972.14c-0.02,20.62-0.68,41.19-1.83,61.72c2.69-8,5.4-16.01,8.11-24.03
			c6.98-20.94,25.12-51.65,4.47-70.49c-5.65-2.98-11.84-4.21-18-5.05C1294.19,1946.5,1296.78,1959.47,1296.76,1972.14z"/>
	</g>
	<g>
		<path class="st3" d="M1199.88,3004.2c12.6,20.24,25.95,39.98,40.08,59.01c15.11,18.72,31.28,36.57,48.7,53.13
			c5.86-6.26,11.65-12.6,17.27-19.09c4.34-5.65,8.54-11.41,12.58-17.28c-26.52-17.19-54.19-33.88-81.29-51.13
			C1224.58,3020.8,1212.07,3012.62,1199.88,3004.2z"/>
	</g>
	<g class="st17">
		<path class="st4" d="M1096.21,3228.93c-27.79-33.08-55.99-65.67-83.11-99.05c-6.78-8.35-13.49-16.74-20.11-25.21
			c-87.77-90.91-129.34-217.58-106.36-340.33c2.55-13.64,5.9-27.23,10.07-40.72c26.68-121.96,81.12-235.02,122.01-352.58
			c3.29-10.29,6.43-20.72,9.4-31.21c8.93-31.45,16.39-63.39,23.42-95.25c8.68-39.34,16.01-78.97,21.79-118.84
			c0.24-1.95,0.47-3.9,0.7-5.85c-3.97,9.56-7.91,19.18-11.82,28.93c-11.79,35.48-25.75,68.98-41.1,102.48
			c-6.92,15.27-13.87,30.47-20.82,45.65c-6.95,15.17-13.91,30.31-20.84,45.43c-4.69,9.94-9.33,19.94-13.93,29.97
			c-4.6,10.04-9.16,20.11-13.66,30.21c-27.05,66.48-59.15,130.69-81.43,199.55c-4.39,12.26-8.8,24.48-13.2,36.74
			c-28.73,78.64-66.41,158.21-60.83,241.96c0.7,11.17,2.4,22.14,4.92,32.97c6.45,23.51,15.03,46.12,25.23,67.96
			c5.1,10.92,10.6,21.65,16.44,32.27c11.73,20.44,24.19,40.48,37.37,60.05c6.59,9.78,13.36,19.46,20.32,29.04
			c57.63,83.39,131.61,154.58,213.96,214.6c8.37-15.35,16.75-30.71,29.31-43.27c-8.38-6.98-15.35-16.75-24.91-22.36
			C1111.15,3244.65,1103.54,3236.95,1096.21,3228.93z"/>
	</g>
	<g>
		<path class="st3" d="M1189.98,1865.36c14.7-0.55,28.41,2.51,41.14,9.2c8.4,2.73,16.07,6.7,23.04,11.89
			c4.93-16.74,14.91-32.71,13.99-51.1c-1.4-9.77-6.98-18.15-16.31-20.72c-4.07-2.26-8.23-4.12-12.31-5.45
			c-12.22-3.96-23.62-3.01-29.14,7.31c-5.62,9.62-10.39,19.49-14.6,29.54c-2.56,6.41-4.82,12.88-6.94,19.39
			C1189.23,1865.41,1189.61,1865.38,1189.98,1865.36z"/>
	</g>
	<g>
		<path class="st3" d="M1196.05,1861.68c20.67-15.63,42.81-29.31,66.46-39.95c-2.69-3.35-6.26-5.88-10.67-7.09
			c-4.07-2.26-8.23-4.12-12.31-5.45c-12.22-3.96-23.62-3.01-29.14,7.31c-5.62,9.62-10.39,19.49-14.6,29.54
			c-2.86,7.17-5.37,14.42-7.7,21.71C1190.73,1865.72,1193.38,1863.69,1196.05,1861.68z"/>
	</g>
	<g>
		<path class="st3" d="M1215.44,2077.55c62.48-20.26,94.59-77.49,130.33-128.09c4.69-7.94,9.93-15.29,15.64-22.22
			c17.1-20.79,38.3-37.8,60.28-55.6c3.84-3.14,6.72-7.15,8.66-11.62c1.94-4.47,2.94-9.4,3.03-14.37
			c0.87-10.29-4.71-18.67-10.29-27.04c-9.77-11.17-25.12-15.35-37.69-11.17c-33.5,13.96-55.83,41.87-84.09,62.81
			c-4.79,3.72-9.59,7.45-14.42,11.17c-4.82,3.72-9.67,7.44-14.56,11.17c-2.09-6.98-1.4-13.61,0.18-20.2
			c1.57-6.59,4.02-13.15,5.43-19.98c9.3-21.5,20-42.35,31.48-62.77c5.74-10.21,11.69-20.32,17.82-30.37
			c33.03-57.9,91.66-88.61,140.51-134.67c9.77-8.38,20.94-26.52,5.58-32.1c-86.54-32.1-174.48,48.85-207.19,128.78
			c-5.58,10.92-11.76,21.51-19.95,30.83c-2.89,4.47-5.86,8.88-8.94,13.23c-3.08,4.35-6.26,8.62-9.58,12.81
			c0.7-4.19,1.47-8.39,2.31-12.59c0.84-4.21,1.75-8.42,2.74-12.62c0.99-4.21,2.05-8.41,3.21-12.62c1.77-9.03,4.76-17.55,8.4-25.8
			c9.87-34.07,71.28-85.71,29.41-105.25c-26.52-12.56-57.23,11.17-76.18,32.98c-2.67,3.16-5.17,6.46-7.53,9.87
			c-4.71,6.83-8.82,14.14-12.44,21.77c-2.9,6.15-5.48,12.52-7.8,19.11c-3.04,10.26-5.79,20.58-8.28,30.96
			c-0.83,3.46-1.64,6.92-2.42,10.39c-4.01,11.7-4.01,24.26-6.92,35.68c-0.82,4.92-1.61,9.84-2.38,14.75
			c-9.24,59-15.04,117.79-19.78,177.57c-0.38,6.76-0.69,13.61-0.97,20.47c-0.43,10.3-0.79,20.6-1.13,30.9
			c-2.14,21.26-4.93,46.38,11.82,61.73c19.54,15.35,44.67,11.17,66.17,5.31C1208.84,2079.79,1212.01,2078.72,1215.44,2077.55z"/>
	</g>
	<g>
		<path class="st1" d="M1622.18,1300.1c18.61-18.85,38.63-35.78,59.79-50.83c21.56-15.17,44.21-28.43,68.3-39.97
			c25.58-11.86,52.34-22.26,79.89-30.97c27.55-8.71,55.87-15.72,84.58-20.81c23.51-4.34,47.38-7.27,71.37-8.73
			c23.99-1.46,48.11-1.45,72.12,0.08c90.7,6.5,177.23,34.53,255.74,78.9c19.63,11.09,38.75,23.21,57.3,36.26
			c40.05,27.65,76.34,59.75,107.05,98.84c32.1,41.87,62.81,78.17,97.71,114.46c-72.58,29.31-150.75,40.48-228.61,45.83
			c-27.21,1.93-55.07,3.24-83.05,4.19c-55.95,1.9-112.04,2.27-167.56,3.98c-24.87-0.28-49.26-1.43-73.58-3.78
			c-24.25-2.31-48.43-5.81-72.51-10.63c-23.13-5.2-46.02-12.1-68.62-20.94c-22.59-8.84-44.89-19.63-66.8-32.61
			c-12.56-8.38-27.92-8.38-41.87-12.56c-29.31-11.17-48.85-34.9-70.16-55.99c-14.67-16.21-28.32-33.27-43.05-49.95
			C1648.88,1331.72,1636.26,1316.87,1622.18,1300.1z"/>
	</g>
	<g class="st18">
		<g>
			<g>
				<path class="st0" d="M1607.16,1750.22c0,0-43.4,33.74-76.86,163.67l39.92,14.61c0,0,8.46-92.65,71.61-168.49L1607.16,1750.22z"
					/>
			</g>
		</g>
	</g>
	<g class="st18">
		<g>
			<g>
				<path class="st0" d="M1524.41,1942.18c0,0-11.89,40.78-12.04,50.98c0,0,40.32,13.44,45.62,14.08c0,0,3.25-40.47,5.86-48.76
					C1563.85,1958.48,1528.74,1946.46,1524.41,1942.18z"/>
			</g>
		</g>
	</g>
	<g>
		<path class="st1" d="M2649.84,1676.97c23.12,10.8,46.54,20.03,69.72,29.27c4.64,1.85,9.26,3.7,13.88,5.57
			c22.66,11.88,47.78,18.86,70.19,31.17c5.28,2.43,10.58,4.85,15.92,7.23c5.33,2.38,10.7,4.71,16.11,6.98
			c-2.42,1.99-4.95,3.97-7.57,5.91c-2.62,1.94-5.34,3.85-8.14,5.71c-44.31,31.65-102.94,42.82-154.02,20.1
			c-2.87-3.3-5.1-7.37-6.87-11.86c-5.32-13.48-6.48-30.82-8.1-43.18c-0.47-2.22-0.88-4.46-1.25-6.72
			c-1.83-11.28-2.41-22.9-1.98-34.1C2647.6,1692.25,2647.13,1691.67,2649.84,1676.97z"/>
	</g>
	<g>
		<path class="st1" d="M1379.03,1708.32c-53.65-4.17-103.9,20.95-154.9,12.75c-7.24-1.26-14.43-3.14-21.59-5.75
			c3.63,6.28,7.68,12.32,12.09,18.08c4.41,5.75,9.19,11.21,14.29,16.26c40.62,36.85,102.04,63.37,150.89,29.87
			c12.56-8.37,1.4-29.31,1.4-46.1C1380.65,1726.03,1379.93,1717.7,1379.03,1708.32z"/>
	</g>
	<g class="st19">
		<path class="st15" d="M1745.57,1290.72c20.92-10.75,42.81-19.86,65.33-27.4c11.26-3.77,22.67-7.14,34.2-10.13
			c88.58-26.31,182.18-30.1,272.52-13.9c12.93,2.31,25.79,5.04,38.68,8.16c116.84,25.38,266.19,81.22,271.77,222.19
			c-58.62-132.6-217.75-157.73-344.59-184.94c-12.19-0.74-24.09-0.1-35.57,2.41c-26.02,3.87-60.91,24.8-39.98,54.12
			c15.7,23.03,31.49,45.19,47.61,66.52c16.11,21.33,32.55,41.83,49.54,61.55c75.94,91.07,172.25,169.24,289.5,198.55
			c-134,26.52-244.27-78.17-318.74-176.64c-15.17-18.62-30.21-37.85-45.57-57.86c-34.9-44.67-69.79-85.15-118.71-111.33
			c-11.34-6.04-23.22-11.12-35.51-15.14c-12.29-4.02-24.98-7-37.93-8.85c-12.51-2.38-25.29-3.99-38.21-4.87
			c-12.92-0.87-25.99-1.01-39.08-0.45C1756.51,1292.25,1751.5,1291.63,1745.57,1290.72z"/>
	</g>
	<g>
		<path class="st3" d="M2240.25,3317.85c13.58-13.23,27.48-25.83,41.67-37.9c14.2-12.07,28.69-23.65,43.31-34.95
			c13.84-10.79,27.37-21.84,40.85-32.9c13.48-11.06,26.92-22.13,40.58-32.94c33.97-28.95,70.26-51.28,107.95-76.4
			c86.96-56.67,193.07-103.08,255.13-180.89c8.87-11.11,16.83-22.87,23.72-35.39c33.66-60.76,33.73-124.98,19.54-188.5
			c-3.55-15.88-7.97-31.72-12.87-47.5c-46.84-143.75-88.71-290.31-154.71-428.33c-5.12-12.49-10.01-25.1-14.6-37.9
			c-4.36-12.2-8.63-24.41-12.76-36.66c-14.37-42.66-26.95-85.72-35.22-129.7c-0.92-4.89-1.78-9.79-2.59-14.7
			c-2.48-14.49-10.64-30.81-1.31-41.3c29.14-31.47,53.62-62.94,78.05-96.4c2.48-2.31,5.12-4.44,8-6.28
			c2.89-1.84,6.03-3.39,9.52-4.56c3.5-1.17,6.99-1.17,10.49-1.17s6.48,1.07,9.05,2.95c12.85,9.41,15.48,39.19,21.53,57.54
			c1.05,3.87,2.13,7.75,3.26,11.61c4.52,15.46,9.88,30.65,17.7,45.16c39.78,68.4,74.68,137.14,105.42,207.14
			c6.16,14.03,12.16,28.1,18.12,42.41c14.48,32.88,27.87,65.91,40.35,99.21c6.24,16.65,12.26,33.37,18.11,50.19
			c7.4,18.97,14.25,38.23,21.01,58c45.44,151.62,112.44,299.58,130.3,456.72c-1.01,14.7-3.52,29.31-7.26,43.76
			c-67.83,194.1-226.96,343.46-397.29,450.78c-19.93,11.72-40.22,22.7-60.84,32.85c-20.62,10.16-41.56,19.49-62.78,27.95
			c-22.93,7.64-45.83,14.92-67.83,24.13c-22.01,9.21-43.12,20.38-62.46,35.74c-16.16,10.74-35.52,18.26-54.72,19.27
			s-38.17-4.49-53.72-19.7c-40.13-38.23-36.58-93.98-52.58-142.1C2246.97,3344.75,2243.59,3331.66,2240.25,3317.85z"/>
	</g>
	<g class="st17">
		<path class="st4" d="M3038.25,2729.87c-3.56-12.7-7.31-25.35-11.25-37.79c-22.45-69.48-53.16-136.48-74.35-206.63
			c-3.59-10.93-7.13-21.83-10.55-32.71c-31.07-78.59-53.4-158.15-86.57-235.18c-6.1-14.25-12.32-28.4-18.66-42.49
			c5.61,44.04,9.97,88.23,11.58,132.56c0.17,4.58,0.3,9.15,0.4,13.71c46.17,126.09,92.51,252.84,113.7,387.1
			c2.66,17.04,4.79,34.16,6.47,51.29c2.44,24.75,2.96,49.73,0.66,74.51c-3,32.24-7.76,64.27-17.79,95.1
			c-9.17,28.19-20.88,55.89-34.44,82.24c-9.42,18.3-20.29,35.83-32.31,52.52c-16.87,23.42-34.79,46.33-54.35,67.6
			c-28.05,30.5-59.38,57.81-91.95,83.37c-39.77,31.21-80.55,60.84-121.94,89.83c-30.28,21.21-60.63,42.36-90.14,64.64
			c-2.25,1.78-4.5,3.56-6.74,5.36c-13.32,13.23-29.03,22.39-47.12,27.46c-9.46,1.27-18.92,2.54-28.39,3.81
			c-28.44,1.27-55.16-12.59-75.51-31.28c-10.41-9.67-17.77-21.13-22.08-34.36c-0.65-1.23-1.25-2.47-1.83-3.72
			c-30.36,13.69-59.69,29.64-87.33,48.18c8.83,40.66,12.63,83.21,45.19,114.23c15.55,15.21,34.53,20.72,53.72,19.7
			c19.19-1.02,38.56-8.53,54.72-19.27c19.34-15.36,40.45-26.52,62.46-35.74c22.01-9.21,44.91-16.49,67.83-24.13
			c21.22-8.45,42.16-17.79,62.78-27.95c20.62-10.15,40.92-21.13,60.84-32.85c170.34-107.33,329.46-256.68,397.29-450.78
			c3.74-14.46,6.25-29.07,7.26-43.76C3063.92,2832.05,3052.5,2780.69,3038.25,2729.87z"/>
	</g>
	<path class="st3" d="M1752.52,3284.86c2.33,10.49,9.32,18.65,18.65,20.98c38.47,11.66,73.43,33.8,111.9,34.97
		c61.78,1.17,125.89,0,184.17-32.64c15.15-9.32,37.3-8.16,48.96-20.98c6.91-6.04,8.69-18.48,3.47-28.78
		c-15.68,3.48-29.54,6.22-41.18,8.32c-14.73-0.53-29.41-0.86-43.97-1.07c-34.17-1.61-68.4-2.2-102.19-2.34
		c-0.85,0-1.71,0.01-2.56,0.02c-0.85,0-1.71-0.01-2.56-0.02c-33.79,0.15-68.03,0.73-102.19,2.34c-17.26,0.25-34.69,0.67-52.17,1.39
		c-4.02-0.72-8.3-1.51-12.85-2.39C1753.88,3269.6,1750.22,3276.24,1752.52,3284.86z"/>
	<path class="st20" d="M3157.39,2881.11c12-135.82-352-824.18-344.42-840.94c7.58-16.76-202.48,99.49-202.48,99.49l133.6,410.9
		c119.29,270.07-106.5,456.87-173.99,505.05l0,0l0,0c-11.35,8.1-18.23,12.29-18.23,12.29l0.47,0.72
		c-158.23,113.27-335.23,168.14-432.68,189.78c5.22,10.31,3.43,22.74-3.47,28.78c-11.66,12.82-33.8,11.66-48.96,20.98
		c-58.28,32.64-122.39,33.8-184.17,32.64c-38.47-1.17-73.43-23.31-111.9-34.97c-9.32-2.33-16.32-10.49-18.65-20.98
		c-2.3-8.63,1.36-15.26,7.48-20.2c-87.42-16.84-270.19-63.93-442.23-183.55l0.74-1.14c0,0-331.56-201.85-192.22-517.35l133.61-410.9
		c0,0-210.06-116.26-202.48-99.49C1065,2069,701,2757.36,713,2893.18c0,0-31.91,171.59,364.6,515.52
		c5.58,4.84,11.24,9.71,16.99,14.61l0,0c55.59,56.64,138.63,131.06,219.23,164.67c-2.77,13.96-4.39,28.11-4.67,42.4
		c0,103.06-1.74,206.11-2.19,309.04c46.61,13.85,93.39,27.12,140.34,39.77c108.26,29.18,217.96,58.84,329.09,75.13
		c103.61,12.55,207.92,12.14,311.5-0.46c49.93-7.24,99.46-16.9,148.59-28.39c88.76-20.76,175.26-48.66,262.81-73.75
		c17.75-5.09,35.53-10.11,53.28-15.25c-0.47-101.95-2.18-204.01-2.18-306.08c-0.31-15.65-2.23-31.13-5.5-46.38
		c136.29-61.79,276.31-212.36,276.31-212.36l0,0C3187.74,3044.39,3157.39,2881.11,3157.39,2881.11z"/>
	<g class="st21">
		<path class="st22" d="M1935.19,3340.61c-8.88,0.34-17.76,0.47-26.61,0.47C1917.43,3341.1,1926.31,3340.98,1935.19,3340.61z"/>
		<path class="st22" d="M3157.39,2881.11c12-135.82-352-824.18-344.42-840.94c3.15-6.97-31.34,9.07-72.71,30.18
			c54.18,136.54,311.87,690.45,302.24,810.76c0,0,27.5,163.27-304.59,490.52l0,0c0,0-126.86,150.57-250.33,212.36
			c2.96,15.24,4.71,30.73,4.99,46.38c0,102.07,1.55,204.14,1.97,306.08c-16.08,5.14-32.18,10.17-48.27,15.25
			c-79.31,25.09-157.68,53-238.1,73.75c-44.51,11.49-89.39,21.15-134.62,28.39c-46,6.18-92.17,9.41-138.34,9.64
			c50.96-0.23,101.92-3.46,152.69-9.64c49.93-7.24,99.46-16.9,148.59-28.39c88.76-20.76,175.26-48.66,262.81-73.75
			c17.75-5.09,35.53-10.11,53.28-15.25c-0.47-101.95-2.18-204.01-2.18-306.08c-0.31-15.65-2.23-31.13-5.5-46.38
			c136.29-61.79,276.31-212.36,276.31-212.36l0,0C3187.74,3044.39,3157.39,2881.11,3157.39,2881.11z"/>
		<path class="st22" d="M1791.32,4054.32c-100.69-16.29-200.07-45.95-298.16-75.13c-42.53-12.65-84.92-25.92-127.15-39.77
			c0.41-102.93,1.99-205.99,1.99-309.04c0.25-14.29,1.72-28.44,4.23-42.4c-73.03-33.61-148.26-108.02-198.62-164.67
			c-5.21-4.91-10.34-9.78-15.39-14.61c-359.24-343.93-330.33-515.52-330.33-515.52c-9.63-120.32,248.06-674.22,302.24-810.77
			c-41.37-21.11-75.86-37.15-72.71-30.18C1065,2069,701,2757.36,713,2893.18c0,0-31.91,171.59,364.6,515.52
			c5.58,4.84,11.24,9.71,16.99,14.61c55.59,56.64,138.63,131.06,219.23,164.67c-2.77,13.96-4.39,28.11-4.67,42.4
			c0,103.06-1.74,206.11-2.19,309.04c46.61,13.85,93.39,27.12,140.34,39.77c108.26,29.18,217.96,58.84,329.09,75.13
			c51.83,6.28,103.83,9.31,155.83,9.2C1885.2,4063.61,1838.18,4060.58,1791.32,4054.32z"/>
	</g>
	<g>
		<polygon class="st23" points="1238.62,2264.21 995.09,2151.73 1067.51,1998.09 1292.75,2101.65 		"/>
		<circle class="st24" cx="1094.5" cy="2066.39" r="15.8"/>
		<circle class="st24" cx="1070.5" cy="2125.89" r="15.8"/>
	</g>
	<g>
		<polygon class="st23" points="2623,2264.21 2866.53,2151.73 2794.11,1998.09 2568.87,2101.65 		"/>
		<circle class="st24" cx="2767.12" cy="2066.39" r="15.8"/>
		<circle class="st24" cx="2791.12" cy="2125.89" r="15.8"/>
	</g>
	<polygon class="st23" points="1761.51,3264.96 1922.28,3338.76 1819.07,3508.48 1675.73,3330.67 1709.93,3238.85 1761.51,3233.5 	
		"/>
	<polygon class="st23" points="2082.66,3264.96 1921.89,3338.76 2025.09,3508.48 2168.44,3330.67 2134.24,3238.85 2082.66,3233.5 	
		"/>
	<path class="st25" d="M1921.89,3338.76c-0.13-0.13-0.25,0.06-0.35,0.53c-0.05,0.09-0.1,0.19-0.15,0.3l-83.32,137.66L1864,3504
		h25.67h32.22h57.89l25.94-26.75L1921.89,3338.76z"/>
	<path class="st26" d="M1921.67,3338.88c-0.05,0.1-0.09,0.23-0.13,0.41c-0.05,0.09-0.1,0.19-0.15,0.3l-83.32,137.66L1864,3504h57.67
		V3338.88z"/>
	<path class="st26" d="M1864,3504l-106.75,547.37c0,0,131.97,13.13,161.5,12.65l13.47-608.04L1864,3504z"/>
	<path class="st25" d="M1981.78,3504l106.11,549.86c0,0-131.64,14.89-174.32,9.66v-607.53L1981.78,3504z"/>
</g>
</svg>
